<svg width="64" height="67" viewBox="0 0 64 67" fill="none" xmlns="http://www.w3.org/2000/svg">
<path d="M60.857 46.2378C59.5111 38.4881 52.3406 33.3145 44.5107 34.4408L44.5107 34.4408C36.8715 35.5403 31.4542 42.783 32.4557 50.5489L32.6044 50.5297L32.4557 50.5489C33.352 57.4984 38.8679 62.6081 46.0107 63.1172L46.0107 63.1172C52.4986 63.5785 58.7259 59.0845 60.5228 52.6128C60.7249 51.8848 60.8504 51.1301 60.9744 50.3843C61.0301 50.0493 61.0855 49.7161 61.1474 49.3879L61.15 49.3741V49.3601V49.3585V48.0728V48.0609L61.1481 48.0491C61.1181 47.8616 61.0887 47.6734 61.0592 47.4847C60.9942 47.0692 60.9289 46.652 60.857 46.2378ZM60.857 46.2378L60.7122 46.263L60.857 46.2378C60.857 46.2378 60.857 46.2378 60.857 46.2378ZM46.6483 59.974C40.4765 59.9597 35.4802 54.9103 35.4857 48.69C35.492 42.4329 40.5163 37.4221 46.7583 37.4444L46.7583 37.4444C52.9363 37.465 57.9579 42.524 57.9484 48.7153C57.9373 54.9304 52.8618 59.9883 46.6483 59.974Z" fill="#FF7F00" stroke="#FF7712" stroke-width="0.3"/>
<path d="M52.7928 18.7284C49.4146 20.2398 46.1803 21.6862 42.9446 23.1311C41.8701 23.6106 40.795 24.0893 39.72 24.5679C37.068 25.7486 34.4157 26.9295 31.7702 28.1241C31.5196 28.2367 31.3004 28.2971 31.0849 28.3036C30.8705 28.31 30.6496 28.2634 30.3951 28.1471C30.3951 28.1471 30.395 28.1471 30.395 28.1471L30.3326 28.2835C28.0875 27.2552 25.8327 26.2507 23.5329 25.2262C22.7832 24.8923 22.0287 24.5562 21.2682 24.2164C21.3101 24.1873 21.3484 24.1597 21.3831 24.1346C21.3923 24.128 21.4012 24.1216 21.4098 24.1154C21.357 24.0918 21.3042 24.0682 21.2514 24.0446L52.7928 18.7284ZM52.7928 18.7284C52.2752 18.4973 51.7615 18.2677 51.2511 18.0396C48.5655 16.8393 45.9708 15.6796 43.3653 14.5445L52.7928 18.7284ZM55.0854 21.1738V21.175V21.1773V21.1797V21.182V21.1844V21.1867V21.189V21.1914V21.1937V21.196V21.1984V21.2007V21.203V21.2053V21.2076V21.21V21.2123V21.2146V21.2169V21.2192V21.2215V21.2238V21.2261V21.2284V21.2306V21.2329V21.2352V21.2375V21.2398V21.242V21.2443V21.2466V21.2488V21.2511V21.2534V21.2556V21.2579V21.2601V21.2624V21.2646V21.2669V21.2691V21.2713V21.2736V21.2758V21.278V21.2802V21.2825V21.2847V21.2869V21.2891V21.2913V21.2935V21.2958V21.298V21.3002V21.3024V21.3046V21.3067V21.3089V21.3111V21.3133V21.3155V21.3177V21.3199V21.322V21.3242V21.3264V21.3285V21.3307V21.3329V21.335V21.3372V21.3393V21.3415V21.3436V21.3458V21.3479V21.3501V21.3522V21.3544V21.3565V21.3586V21.3607V21.3629V21.365V21.3671V21.3692V21.3714V21.3735V21.3756V21.3777V21.3798V21.3819V21.384V21.3861V21.3882V21.3903V21.3924V21.3945V21.3966V21.3987V21.4008V21.4028V21.4049V21.407V21.4091V21.4111V21.4132V21.4153V21.4174V21.4194V21.4215V21.4235V21.4256V21.4277V21.4297V21.4318V21.4338V21.4359V21.4379V21.4399V21.442V21.444V21.4461V21.4481V21.4501V21.4521V21.4542V21.4562V21.4582V21.4602V21.4623V21.4643V21.4663V21.4683V21.4703V21.4723V21.4743V21.4763V21.4783V21.4803V21.4823V21.4843V21.4863V21.4883V21.4903V21.4923V21.4943V21.4963V21.4983V21.5002V21.5022V21.5042V21.5062V21.5081V21.5101V21.5121V21.514V21.516V21.518V21.5199V21.5219V21.5238V21.5258V21.5278V21.5297V21.5317V21.5336V21.5356V21.5375V21.5394V21.5414V21.5433V21.5453V21.5472V21.5491V21.5511V21.553V21.5549V21.5568V21.5588V21.5607V21.5626V21.5645V21.5665V21.5684V21.5703V21.5722V21.5741V21.576V21.5779V21.5798V21.5817V21.5836V21.5855V21.5874V21.5893V21.5912V21.5931V21.595V21.5969V21.5988V21.6007V21.6026V21.6045V21.6063V21.6082V21.6101V21.612V21.6139V21.6157V21.6176V21.6195V21.6214V21.6232V21.6251V21.627V21.6288V21.6307V21.6326V21.6344V21.6363V21.6381V21.64V21.6419V21.6437V21.6456V21.6474V21.6493V21.6511V21.653V21.6548V21.6567V21.6585V21.6603V21.6622V21.664V21.6659V21.6677V21.6695V21.6714V21.6732V21.675V21.6769V21.6787V21.6805V21.6823V21.6842V21.686V21.6878V21.6896V21.6915V21.6933V21.6951V21.6969V21.6987V21.7005V21.7023V21.7042V21.706V21.7078V21.7096V21.7114V21.7132V21.715V21.7168V21.7186V21.7204V21.7222V21.724V21.7258V21.7276V21.7294V21.7312V21.733V21.7348V21.7366V21.7384V21.7402V21.7419V21.7437V21.7455V21.7473V21.7491V21.7509V21.7527V21.7544V21.7562V21.758V21.7598V21.7616V21.7633V21.7651V21.7669V21.7687V21.7704V21.7722V21.774V21.7758V21.7775V21.7793V21.7811V21.7828V21.7846V21.7864V21.7881V21.7899V21.7917V21.7934V21.7952V21.7969V21.7987V21.8005V21.8022V21.804V21.8057V21.8075V21.8092V21.811V21.8128V21.8145V21.8163V21.818V21.8198V21.8215V21.8233V21.825V21.8268V21.8285V21.8303V21.832V21.8337V21.8355V21.8372V21.839V21.8407V21.8425V21.8442V21.846V21.8477V21.8494V21.8512V21.8529V21.8547V21.8564V21.8581V21.8599V21.8616V21.8633V21.8651V21.8668V21.8685V21.8703V21.872V21.8737V21.8755V21.8772V21.8789V21.8807V21.8824V21.8841V21.8859V21.8876V21.8893V21.8911V21.8928V21.8945V21.8962V21.898V21.8997V21.9014V21.9031V21.9049V21.9066V21.9083V21.91V21.9118V21.9135V21.9152V21.9169V21.9187V21.9204V21.9221V21.9238V21.9256V21.9273V21.929V21.9307V21.9324V21.9342V21.9359V21.9376V21.9393V21.9411V21.9428V21.9445V21.9462V21.9479V21.9497V21.9514V21.9531V21.9548V21.9565V21.9582V21.96V21.9617V21.9634V21.9651V21.9668V21.9686V21.9703V21.972V21.9737V21.9754V21.9772V21.9789V21.9806V21.9823V21.984V21.9841C55.086 23.2888 55.0857 24.5939 55.0854 25.8991C55.085 28.1827 55.0845 30.4667 55.0886 32.7498C55.0894 33.2947 55.2349 33.7501 55.5117 34.0717C55.7908 34.3958 56.1905 34.5687 56.6653 34.5687C57.1387 34.5687 57.5394 34.3948 57.8197 34.0702C58.0979 33.7481 58.2451 33.292 58.2452 32.7466C58.249 30.5553 58.2488 28.3653 58.2486 26.1755C58.2484 23.7869 58.2482 21.3984 58.2532 19.0086C58.2541 18.5779 58.1662 18.2093 57.9688 17.9013C57.7714 17.5931 57.473 17.3591 57.0765 17.1828L57.0765 17.1827C54.5311 16.0513 51.9865 14.9177 49.4419 13.7841C43.6059 11.1843 37.7696 8.5843 31.9226 6.00939C31.6639 5.89529 31.3444 5.84583 31.0318 5.85027C30.7188 5.85472 30.3998 5.91339 30.1407 6.02702L30.1404 6.02713C25.1324 8.23412 20.1326 10.4605 15.1331 12.6867C11.8003 14.1707 8.46776 15.6546 5.13297 17.1327C4.68651 17.3305 4.36101 17.5851 4.14936 17.9217C3.9381 18.2577 3.85 18.6599 3.85 19.1356L3.85 19.1357C3.86285 29.3405 3.86285 39.5436 3.85 49.7467V49.7469C3.85 50.2275 3.94522 50.6286 4.16207 50.9618C4.37887 51.2949 4.70745 51.545 5.14698 51.7415L5.14742 51.7417C5.94472 52.095 6.74207 52.4481 7.5394 52.8013C14.8369 56.0336 22.1338 59.2657 29.3981 62.5711L29.3982 62.5711C30.0385 62.862 30.6219 63.003 31.1948 62.9775C31.7686 62.9519 32.3189 62.76 32.8936 62.406L32.8937 62.4059C33.3735 62.1097 33.7258 61.7646 33.8999 61.3755C34.0773 60.9791 34.0624 60.5532 33.8381 60.1227C33.6204 59.7037 33.2921 59.4443 32.8784 59.3511C32.4712 59.2594 31.9987 59.3325 31.4908 59.5389L31.4903 59.5391C31.3496 59.5968 31.1723 59.6336 30.9943 59.6398C30.8153 59.6459 30.6476 59.6206 30.522 59.5649L30.5219 59.5649C26.3688 57.7276 22.2209 55.8811 18.0729 54.0345C14.5965 52.487 11.12 50.9394 7.64044 49.3972C7.38439 49.2835 7.22818 49.1708 7.13213 49.0307C7.03696 48.8919 6.98732 48.7063 6.98731 48.4179C7.00345 41.5468 7.00328 34.6766 7.00311 27.8061C7.00306 25.7854 7.00301 23.7647 7.00337 21.744V21.744C7.00337 21.6022 7.01333 21.4651 7.02529 21.3005C7.02786 21.265 7.03053 21.2283 7.03321 21.1899C7.0787 21.2084 7.12281 21.2262 7.16576 21.2435C7.36265 21.323 7.53536 21.3927 7.70679 21.4687C9.26486 22.1629 10.8231 22.8567 12.3813 23.5504C18.1567 26.1216 23.9316 28.6926 29.6957 31.2896C30.1629 31.5006 30.6021 31.6136 31.0464 31.6177C31.4911 31.6218 31.9316 31.5166 32.4012 31.3041C36.8417 29.2953 41.2935 27.3122 45.7455 25.3291C47.0918 24.7293 48.4381 24.1296 49.7841 23.5292C51.3074 22.8507 52.8306 22.1746 54.4283 21.4654C54.6459 21.3688 54.8649 21.2716 55.0854 21.1738ZM4 19.1356C4 18.2204 4.339 17.6485 5.19373 17.2699C8.52909 15.7915 11.8619 14.3075 15.1947 12.8234C20.1939 10.5974 25.193 8.37131 30.2009 6.16439C30.6749 5.95656 31.3946 5.94045 31.8622 6.14667C37.709 8.72149 43.5449 11.3213 49.3807 13.9211C51.9254 15.0547 54.47 16.1883 57.0155 17.3198L4 19.1356ZM21.6234 23.9817C28.6106 20.8642 35.5976 17.7468 42.5926 14.6455C42.7155 14.5914 42.8655 14.5441 43.0101 14.5226C43.1582 14.5006 43.282 14.5083 43.3652 14.5444L21.6234 23.9817ZM37.6102 11.9566C38.1332 12.1909 38.6598 12.427 39.1912 12.6646C39.1837 12.6689 39.1763 12.6732 39.169 12.6774C39.0299 12.7574 38.9196 12.8208 38.7993 12.8748C31.8813 15.9616 24.9633 19.0485 18.039 22.1224C17.9117 22.1785 17.7609 22.2329 17.6174 22.2614C17.4692 22.2909 17.3523 22.288 17.2773 22.2556L17.2773 22.2556C15.1109 21.3185 12.9559 20.3547 10.7237 19.3565C10.2602 19.1492 9.79328 18.9404 9.32227 18.73C10.7321 18.1018 12.0992 17.4931 13.4458 16.8935C14.6939 16.3378 15.9244 15.7899 17.1551 15.2415C18.0221 14.8552 18.8889 14.4688 19.7557 14.0823C23.3466 12.4813 26.9369 10.8806 30.5346 9.29349L30.5347 9.29345C30.6656 9.2356 30.8265 9.1863 30.9823 9.16466C31.1413 9.14257 31.2772 9.15176 31.37 9.19225L31.3704 9.19242C33.4383 10.0868 35.4943 11.0083 37.6102 11.9566Z" fill="#FF7F00" stroke="#FF7712" stroke-width="0.3"/>
<path d="M46.698 46.4951C46.4244 46.2176 46.1561 45.9449 45.8916 45.676C45.1546 44.9267 44.4467 44.207 43.7317 43.4958L43.7316 43.4957C43.3658 43.1323 42.9512 42.9258 42.5372 42.8941C42.1209 42.8622 41.7202 43.0086 41.3918 43.3229L46.698 46.4951ZM46.698 46.4951L46.7335 46.4594C47.555 45.631 48.3482 44.8312 49.1428 44.0328L49.1429 44.0327C49.2115 43.9639 49.2805 43.8928 49.3503 43.8209C49.5236 43.6424 49.7017 43.4591 49.8907 43.2929C50.5591 42.7049 51.4328 42.6974 52.0466 43.2789L52.0466 43.279C52.6711 43.8714 52.7287 44.8358 52.0962 45.5091C51.4887 46.1574 50.8569 46.7854 50.2271 47.4113C49.9457 47.691 49.6646 47.9703 49.3863 48.2509C49.2793 48.3593 49.1775 48.4705 49.0526 48.607C49.0144 48.6489 48.9739 48.6931 48.9305 48.7403C49.2357 49.0429 49.5399 49.3434 49.843 49.6429C50.5764 50.3676 51.3035 51.086 52.0226 51.8115L52.0226 51.8115C52.295 52.0864 52.4658 52.3964 52.515 52.7313C52.5642 53.0668 52.4891 53.4124 52.2956 53.7537C52.1073 54.0875 51.85 54.317 51.5435 54.4356C51.2379 54.5539 50.8962 54.557 50.5461 54.4607C50.1944 54.3644 49.8754 54.0964 49.6336 53.8572L49.6336 53.8572C48.9159 53.1468 48.2105 52.4224 47.4634 51.6552C47.2167 51.4018 46.9654 51.1438 46.7076 50.88C46.4946 51.0986 46.2844 51.3143 46.0764 51.5279C45.4431 52.1778 44.8296 52.8076 44.2153 53.4364C44.1922 53.4601 44.1691 53.484 44.1459 53.5079C43.9833 53.6755 43.8175 53.8464 43.643 54.0086C43.2741 54.3527 42.8509 54.539 42.4333 54.5506C42.0138 54.5623 41.613 54.3972 41.2966 54.0632L41.2966 54.0632C40.9856 53.7347 40.8307 53.3477 40.8523 52.9441C40.8737 52.5423 41.0688 52.1434 41.4205 51.7847L41.4206 51.7846C42.1109 51.0816 42.8118 50.3882 43.539 49.6689C43.8621 49.3492 44.1905 49.0244 44.5253 48.6914C44.2213 48.3917 43.9232 48.0988 43.6297 47.8104C42.9067 47.1 42.2114 46.417 41.5242 45.7267L41.5241 45.7267C41.1441 45.3447 40.9318 44.9147 40.9071 44.4882C40.8823 44.059 41.0488 43.6511 41.3918 43.323L46.698 46.4951Z" fill="#FF7F00" stroke="#FF7712" stroke-width="0.3"/>
</svg>
